<svg width="657.8px" height="122px" xmlns="http://www.w3.org/2000/svg" viewBox="-78.89875488281251 13.9893798828125 657.797509765625 122.021240234375" style="background: rgb(16, 154, 215)" preserveAspectRatio="xMidYMid"><defs><filter id="editing-extrude-glow"><feFlood flood-color="#109ad7" result="flood-1"></feFlood><feMorphology operator="erode" radius="1" in="SourceAlpha" result="erode"></feMorphology><feComposite operator="in" in="flood-1" in2="erode" result="comp1"></feComposite><feConvolveMatrix order="3,3" divisor="1" in="comp1" result="convolve" kernelMatrix="0 0 0 1 1 1 0 0 0"></feConvolveMatrix><feOffset dx="-3" dy="0" in="convolve" result="extrude"></feOffset><feComposite operator="in" in="flood-1" in2="extrude" result="comp-extrude"></feComposite><feFlood flood-color="#fdfdfe" result="flood-2"></feFlood><feComposite operator="in" in="flood-2" in2="SourceAlpha" result="comp2"></feComposite><feMorphology operator="dilate" radius="1" in="comp2" result="dilate"></feMorphology><feOffset dx="-4.5" dy="0" in="dilate" result="offset"></feOffset><feGaussianBlur in="offset" stdDeviation="5.8" result="blur"></feGaussianBlur><feComponentTransfer in="blur" result="shadow"><feFuncA type="linear" slope="0.8" intercept="-0.2"></feFuncA></feComponentTransfer><feMerge><feMergeNode in="shadow"></feMergeNode><feMergeNode in="comp-extrude"></feMergeNode><feMergeNode in="SourceGraphic"></feMergeNode></feMerge></filter></defs><g filter="url(#editing-extrude-glow)"><g transform="matrix(1.2,0,0,1.7,-22.6,-261.2)"><path d="M -27.9 219 L -41.9 219 L -33.8 176.8 L -19.7 176.8 L -27.9 219 Z M 27.8 220.3 L 27.8 220.3 L 27.8 220.3 Q 20.1 220.3 20.1 214.3 L 20.1 214.3 L 20.1 214.3 Q 20.1 211.6 21.2 206.5 L 21.2 206.5 L 21.2 206.5 Q 22.3 201.5 22.7 199.4 L 22.7 199.4 L 22.7 199.4 Q 23.6 194.7 23.6 193.3 L 23.6 193.3 L 23.6 193.3 Q 23.6 190 21.1 190 L 21.1 190 L 21.1 190 Q 19.5 190 18 192.2 L 18 192.2 L 18 192.2 Q 16.5 194.4 15.8 198.8 L 15.8 198.8 L 11.8 219 L -0.7 220.3 L 2.8 202.9 L 2.8 202.9 Q 3.4 200 3.9 196.7 L 3.9 196.7 L 3.9 196.7 Q 4.4 193.5 4.4 192.9 L 4.4 192.9 L 4.4 192.9 Q 4.4 190 2.2 190 L 2.2 190 L 2.2 190 Q 0.7 190 -0.9 192.2 L -0.9 192.2 L -0.9 192.2 Q -2.5 194.4 -3.4 198.8 L -3.4 198.8 L -7.3 219 L -19.9 220.3 L -13.2 186.4 L -2.7 185.1 L -3.8 191.5 L -3.8 191.5 Q -2.1 188.1 0.9 186.6 L 0.9 186.6 L 0.9 186.6 Q 4 185.1 8.8 185.1 L 8.8 185.1 L 8.8 185.1 Q 11.5 185.1 13.3 186.4 L 13.3 186.4 L 13.3 186.4 Q 15.1 187.8 15.7 189.9 L 15.7 189.9 L 15.7 189.9 Q 16.8 187.7 19.6 186.4 L 19.6 186.4 L 19.6 186.4 Q 22.4 185.1 25.8 185.1 L 25.8 185.1 L 25.8 185.1 Q 29.2 185.1 30.9 185.8 L 30.9 185.8 L 30.9 185.8 Q 32.6 186.5 33.6 187.8 L 33.6 187.8 L 33.6 187.8 Q 35.4 190 35.4 194.1 L 35.4 194.1 L 35.4 194.1 Q 35.4 198.1 33.6 206.5 L 33.6 206.5 L 33.6 206.5 Q 32.7 210.6 32.7 212.1 L 32.7 212.1 L 32.7 212.1 Q 32.7 213.6 33.6 214.5 L 33.6 214.5 L 33.6 214.5 Q 34.5 215.4 35.7 215.5 L 35.7 215.5 L 35.7 215.5 Q 35.1 217.7 32.9 219 L 32.9 219 L 32.9 219 Q 30.7 220.3 27.8 220.3 Z M 43.5 217.1 L 43.5 217.1 L 43.5 217.1 Q 41.9 215.4 41.3 212.8 L 41.3 212.8 L 41.3 212.8 Q 40.6 210.2 40.6 205.9 L 40.6 205.9 L 40.6 205.9 Q 40.6 201.6 42.1 197.7 L 42.1 197.7 L 42.1 197.7 Q 43.5 193.8 46.2 191 L 46.2 191 L 46.2 191 Q 51.7 185.1 60.8 185.1 L 60.8 185.1 L 60.8 185.1 Q 64.1 185.1 66.5 186.2 L 66.5 186.2 L 77.4 185.1 L 72.7 210 L 72.7 210 Q 72.5 210.8 72.5 212.2 L 72.5 212.2 L 72.5 212.2 Q 72.5 213.6 73.3 214.5 L 73.3 214.5 L 73.3 214.5 Q 74.2 215.4 75.5 215.5 L 75.5 215.5 L 75.5 215.5 Q 74.8 217.7 72.5 219 L 72.5 219 L 72.5 219 Q 70.2 220.3 67.5 220.3 L 67.5 220.3 L 67.5 220.3 Q 64.9 220.3 63.2 219.3 L 63.2 219.3 L 63.2 219.3 Q 61.4 218.3 60.9 216.6 L 60.9 216.6 L 60.9 216.6 Q 59.9 218.2 57.7 219.3 L 57.7 219.3 L 57.7 219.3 Q 55.5 220.3 52.6 220.3 L 52.6 220.3 L 52.6 220.3 Q 49.7 220.3 47.3 219.5 L 47.3 219.5 L 47.3 219.5 Q 45 218.7 43.5 217.1 Z M 57 191.1 L 57 191.1 L 57 191.1 Q 56.2 192.2 55.6 194.2 L 55.6 194.2 L 55.6 194.2 Q 54.9 196.1 53.9 201.4 L 53.9 201.4 L 53.9 201.4 Q 52.8 206.6 52.8 210.3 L 52.8 210.3 L 52.8 210.3 Q 52.8 214 53.4 215.1 L 53.4 215.1 L 53.4 215.1 Q 54 216.2 55 216.2 L 55 216.2 L 55 216.2 Q 57.1 216.2 58.6 214.2 L 58.6 214.2 L 58.6 214.2 Q 60.1 212.3 60.6 208.8 L 60.6 208.8 L 64 190.1 L 64 190.1 Q 62.7 188.9 61.1 188.9 L 61.1 188.9 L 61.1 188.9 Q 59.5 188.9 58.6 189.4 L 58.6 189.4 L 58.6 189.4 Q 57.7 189.9 57 191.1 Z M 85.1 192.2 L 85.1 192.2 L 85.1 192.2 Q 87.3 189.2 90.6 187.1 L 90.6 187.1 L 90.6 187.1 Q 93.9 185.1 97.9 185.1 L 97.9 185.1 L 97.9 185.1 Q 102 185.1 103.9 186.4 L 103.9 186.4 L 116.4 185.1 L 112.1 209.7 L 112.1 209.7 Q 109.9 222.2 105.1 227.1 L 105.1 227.1 L 105.1 227.1 Q 100.6 231.8 91.7 231.8 L 91.7 231.8 L 91.7 231.8 Q 85 231.8 81.2 229.7 L 81.2 229.7 L 81.2 229.7 Q 77.3 227.6 77.3 224.1 L 77.3 224.1 L 77.3 224.1 Q 77.3 221.4 79.3 219.9 L 79.3 219.9 L 79.3 219.9 Q 81.3 218.4 84.4 218.4 L 84.4 218.4 L 84.4 218.4 Q 87.1 218.4 89.1 219.6 L 89.1 219.6 L 89.1 219.6 Q 90.3 220.3 90.9 221.2 L 90.9 221.2 L 90.9 221.2 Q 89.4 222.5 89.4 224.6 L 89.4 224.6 L 89.4 224.6 Q 89.4 227.3 92 227.3 L 92 227.3 L 92 227.3 Q 96.3 227.3 98.7 217.2 L 98.7 217.2 L 98.7 217.2 Q 99.4 214.5 100 211.7 L 100 211.7 L 100 211.7 Q 97.1 215.2 90.6 215.2 L 90.6 215.2 L 90.6 215.2 Q 86 215.2 83.4 213 L 83.4 213 L 83.4 213 Q 80.8 210.9 80.8 205.7 L 80.8 205.7 L 80.8 205.7 Q 80.8 202.5 81.9 198.9 L 81.9 198.9 L 81.9 198.9 Q 83 195.3 85.1 192.2 Z M 93.5 205.9 L 93.5 205.9 L 93.5 205.9 Q 93.5 210.3 95.7 210.3 L 95.7 210.3 L 95.7 210.3 Q 97.2 210.3 98.7 208.6 L 98.7 208.6 L 98.7 208.6 Q 99.9 207.3 100.3 205.3 L 100.3 205.3 L 103.6 188.9 L 103.6 188.9 Q 103.3 188.8 102.9 188.7 L 102.9 188.7 L 102.9 188.7 Q 102.3 188.4 101.5 188.4 L 101.5 188.4 L 101.5 188.4 Q 97.6 188.4 95.3 194.8 L 95.3 194.8 L 95.3 194.8 Q 93.5 199.8 93.5 205.9 Z M 144.9 208.2 L 144.9 208.2 L 144.9 208.2 Q 146.5 209.3 146.5 211.7 L 146.5 211.7 L 146.5 211.7 Q 146.5 214.1 145.2 215.6 L 145.2 215.6 L 145.2 215.6 Q 144 217.1 142 218.2 L 142 218.2 L 142 218.2 Q 137.9 220.3 133.5 220.3 L 133.5 220.3 L 133.5 220.3 Q 129.1 220.3 126.5 219.3 L 126.5 219.3 L 126.5 219.3 Q 123.9 218.4 122.2 216.6 L 122.2 216.6 L 122.2 216.6 Q 118.8 213.2 118.8 207 L 118.8 207 L 118.8 207 Q 118.8 197.3 124.1 191.4 L 124.1 191.4 L 124.1 191.4 Q 129.7 185.1 139.5 185.1 L 139.5 185.1 L 139.5 185.1 Q 145.6 185.1 148.6 187.6 L 148.6 187.6 L 148.6 187.6 Q 150.8 189.6 150.8 192.7 L 150.8 192.7 L 150.8 192.7 Q 150.8 204 131.4 204 L 131.4 204 L 131.4 204 Q 131.1 205.6 131.1 207 L 131.1 207 L 131.1 207 Q 131.1 210 132.4 211.1 L 132.4 211.1 L 132.4 211.1 Q 133.7 212.2 136.2 212.2 L 136.2 212.2 L 136.2 212.2 Q 138.6 212.2 141.2 211.1 L 141.2 211.1 L 141.2 211.1 Q 143.8 210 144.9 208.2 Z M 131.8 201.2 L 131.8 201.2 L 131.8 201.2 Q 136.3 201.2 139 198.4 L 139 198.4 L 139 198.4 Q 141.6 195.7 141.6 191.4 L 141.6 191.4 L 141.6 191.4 Q 141.6 189.9 141.1 189.1 L 141.1 189.1 L 141.1 189.1 Q 140.5 188.3 139.4 188.3 L 139.4 188.3 L 139.4 188.3 Q 138.3 188.3 137.4 188.8 L 137.4 188.8 L 137.4 188.8 Q 136.5 189.2 135.5 190.6 L 135.5 190.6 L 135.5 190.6 Q 133.1 193.8 131.8 201.2 Z M 172.1 196.5 L 172.1 196.5 L 172.1 196.5 Q 173 194.2 173 192.1 L 173 192.1 L 173 192.1 Q 173 188.3 169.9 188.3 L 169.9 188.3 L 169.9 188.3 Q 168.3 188.3 167 189.8 L 167 189.8 L 167 189.8 Q 165.7 191.2 165.7 193 L 165.7 193 L 165.7 193 Q 165.7 194.3 166.7 195.3 L 166.7 195.3 L 166.7 195.3 Q 168.2 196.7 172 199 L 172 199 L 172 199 Q 175.8 201.3 177.2 203.2 L 177.2 203.2 L 177.2 203.2 Q 178.7 205.1 178.7 207.7 L 178.7 207.7 L 178.7 207.7 Q 178.7 210.3 177.4 212.7 L 177.4 212.7 L 177.4 212.7 Q 176.2 215 173.9 216.7 L 173.9 216.7 L 173.9 216.7 Q 169.1 220.3 161.4 220.3 L 161.4 220.3 L 161.4 220.3 Q 157.3 220.3 154.1 218.1 L 154.1 218.1 L 154.1 218.1 Q 150.9 216 150.9 213.5 L 150.9 213.5 L 150.9 213.5 Q 150.9 211 152.7 209.5 L 152.7 209.5 L 152.7 209.5 Q 154.5 208.1 157.2 208.1 L 157.2 208.1 L 157.2 208.1 Q 159.9 208.1 161.6 209.1 L 161.6 209.1 L 161.6 209.1 Q 160.7 211.2 160.7 212.6 L 160.7 212.6 L 160.7 212.6 Q 160.7 216.8 164.3 216.8 L 164.3 216.8 L 164.3 216.8 Q 165.9 216.8 166.9 215.9 L 166.9 215.9 L 166.9 215.9 Q 167.9 214.9 167.9 213.2 L 167.9 213.2 L 167.9 213.2 Q 167.9 210 162.4 206.5 L 162.4 206.5 L 162.4 206.5 Q 157.9 203.6 156.9 202.4 L 156.9 202.4 L 156.9 202.4 Q 155.2 200.4 155.2 197.8 L 155.2 197.8 L 155.2 197.8 Q 155.2 195.3 156.4 192.8 L 156.4 192.8 L 156.4 192.8 Q 157.6 190.4 159.8 188.7 L 159.8 188.7 L 159.8 188.7 Q 164.5 185.1 172.6 185.1 L 172.6 185.1 L 172.6 185.1 Q 176.8 185.1 179.3 186.7 L 179.3 186.7 L 179.3 186.7 Q 181.7 188.4 181.7 191.2 L 181.7 191.2 L 181.7 191.2 Q 181.7 194 180 195.6 L 180 195.6 L 180 195.6 Q 178.3 197.2 175.3 197.2 L 175.3 197.2 L 175.3 197.2 Q 173.1 197.2 172.1 196.5 Z M 223.2 198.4 L 236.1 197.2 L 236.1 197.2 Q 231.5 207.3 231.5 219.1 L 231.5 219.1 L 231.5 219.1 Q 229.8 220.3 227.3 220.3 L 227.3 220.3 L 227.3 220.3 Q 224.7 220.3 223.1 219.1 L 223.1 219.1 L 223.1 219.1 Q 221.5 217.9 221.2 216.7 L 221.2 216.7 L 221.2 216.7 Q 219.6 218.4 217 219.3 L 217 219.3 L 217 219.3 Q 214.4 220.3 211.7 220.3 L 211.7 220.3 L 211.7 220.3 Q 208.9 220.3 206.5 219.4 L 206.5 219.4 L 206.5 219.4 Q 204.1 218.5 202.3 216.5 L 202.3 216.5 L 202.3 216.5 Q 198.2 212.1 198.2 203.9 L 198.2 203.9 L 198.2 203.9 Q 198.2 191.1 205 183.4 L 205 183.4 L 205 183.4 Q 212.1 175.5 224.5 175.5 L 224.5 175.5 L 224.5 175.5 Q 233.2 175.5 236.3 180 L 236.3 180 L 236.3 180 Q 237.2 181.4 237.2 183.1 L 237.2 183.1 L 237.2 183.1 Q 237.2 184.8 236.5 186.2 L 236.5 186.2 L 236.5 186.2 Q 235.7 187.6 234.6 188.8 L 234.6 188.8 L 234.6 188.8 Q 231.8 191.3 228.4 191.3 L 228.4 191.3 L 228.4 191.3 Q 227.1 191.3 225.8 190.9 L 225.8 190.9 L 225.8 190.9 Q 226.1 189 226.1 186.7 L 226.1 186.7 L 226.1 186.7 Q 226.1 184.5 225.9 183.5 L 225.9 183.5 L 225.9 183.5 Q 225.8 182.5 225.4 181.6 L 225.4 181.6 L 225.4 181.6 Q 224.5 179.9 222.7 179.9 L 222.7 179.9 L 222.7 179.9 Q 220.9 179.9 218.9 181.8 L 218.9 181.8 L 218.9 181.8 Q 216.9 183.8 215.3 187 L 215.3 187 L 215.3 187 Q 211.7 194.2 211.7 202.8 L 211.7 202.8 L 211.7 202.8 Q 211.7 206.8 213.3 209.6 L 213.3 209.6 L 213.3 209.6 Q 214.9 212.7 217.9 212.7 L 217.9 212.7 L 217.9 212.7 Q 218.9 212.7 219.8 212.1 L 219.8 212.1 L 219.8 212.1 Q 220.8 211.6 221.1 211.3 L 221.1 211.3 L 223.2 198.4 Z M 242 217.1 L 242 217.1 L 242 217.1 Q 240.5 215.4 239.9 212.8 L 239.9 212.8 L 239.9 212.8 Q 239.2 210.2 239.2 205.9 L 239.2 205.9 L 239.2 205.9 Q 239.2 201.6 240.7 197.7 L 240.7 197.7 L 240.7 197.7 Q 242.1 193.8 244.8 191 L 244.8 191 L 244.8 191 Q 250.3 185.1 259.4 185.1 L 259.4 185.1 L 259.4 185.1 Q 262.7 185.1 265.1 186.2 L 265.1 186.2 L 276 185.1 L 271.3 210 L 271.3 210 Q 271.1 210.8 271.1 212.2 L 271.1 212.2 L 271.1 212.2 Q 271.1 213.6 271.9 214.5 L 271.9 214.5 L 271.9 214.5 Q 272.8 215.4 274.1 215.5 L 274.1 215.5 L 274.1 215.5 Q 273.4 217.7 271.1 219 L 271.1 219 L 271.1 219 Q 268.8 220.3 266.1 220.3 L 266.1 220.3 L 266.1 220.3 Q 263.5 220.3 261.8 219.3 L 261.8 219.3 L 261.8 219.3 Q 260 218.3 259.5 216.6 L 259.5 216.6 L 259.5 216.6 Q 258.5 218.2 256.3 219.3 L 256.3 219.3 L 256.3 219.3 Q 254.1 220.3 251.2 220.3 L 251.2 220.3 L 251.2 220.3 Q 248.3 220.3 245.9 219.5 L 245.9 219.5 L 245.9 219.5 Q 243.5 218.7 242 217.1 Z M 255.5 191.1 L 255.5 191.1 L 255.5 191.1 Q 254.8 192.2 254.2 194.2 L 254.2 194.2 L 254.2 194.2 Q 253.5 196.1 252.5 201.4 L 252.5 201.4 L 252.5 201.4 Q 251.4 206.6 251.4 210.3 L 251.4 210.3 L 251.4 210.3 Q 251.4 214 252 215.1 L 252 215.1 L 252 215.1 Q 252.6 216.2 253.6 216.2 L 253.6 216.2 L 253.6 216.2 Q 255.6 216.2 257.1 214.2 L 257.1 214.2 L 257.1 214.2 Q 258.7 212.3 259.2 208.8 L 259.2 208.8 L 262.6 190.1 L 262.6 190.1 Q 261.3 188.9 259.7 188.9 L 259.7 188.9 L 259.7 188.9 Q 258.1 188.9 257.2 189.4 L 257.2 189.4 L 257.2 189.4 Q 256.3 189.9 255.5 191.1 Z M 294.7 215.5 L 294.7 215.5 L 294.7 215.5 Q 292.8 220.3 286.4 220.3 L 286.4 220.3 L 286.4 220.3 Q 283.2 220.3 281.2 218 L 281.2 218 L 281.2 218 Q 279.5 216.2 279.5 214.1 L 279.5 214.1 L 279.5 214.1 Q 279.5 209.3 281.8 198.8 L 281.8 198.8 L 286.4 174.2 L 299.4 172.9 L 293.2 205.3 L 293.2 205.3 Q 292.1 210 292.1 211.7 L 292.1 211.7 L 292.1 211.7 Q 292.1 215.3 294.7 215.5 Z M 315.5 215.5 L 315.5 215.5 L 315.5 215.5 Q 313.5 220.3 307.2 220.3 L 307.2 220.3 L 307.2 220.3 Q 304 220.3 301.9 218 L 301.9 218 L 301.9 218 Q 300.3 216.2 300.3 214.1 L 300.3 214.1 L 300.3 214.1 Q 300.3 209.3 302.5 198.8 L 302.5 198.8 L 307.2 174.2 L 320.2 172.9 L 313.9 205.3 L 313.9 205.3 Q 312.9 210 312.9 211.7 L 312.9 211.7 L 312.9 211.7 Q 312.9 215.3 315.5 215.5 Z M 346.8 208.2 L 346.8 208.2 L 346.8 208.2 Q 348.4 209.3 348.4 211.7 L 348.4 211.7 L 348.4 211.7 Q 348.4 214.1 347.2 215.6 L 347.2 215.6 L 347.2 215.6 Q 346 217.1 344 218.2 L 344 218.2 L 344 218.2 Q 339.9 220.3 335.5 220.3 L 335.5 220.3 L 335.5 220.3 Q 331.1 220.3 328.5 219.3 L 328.5 219.3 L 328.5 219.3 Q 325.9 218.4 324.2 216.6 L 324.2 216.6 L 324.2 216.6 Q 320.8 213.2 320.8 207 L 320.8 207 L 320.8 207 Q 320.8 197.3 326 191.4 L 326 191.4 L 326 191.4 Q 331.7 185.1 341.5 185.1 L 341.5 185.1 L 341.5 185.1 Q 347.5 185.1 350.6 187.6 L 350.6 187.6 L 350.6 187.6 Q 352.8 189.6 352.8 192.7 L 352.8 192.7 L 352.8 192.7 Q 352.8 204 333.3 204 L 333.3 204 L 333.3 204 Q 333.1 205.6 333.1 207 L 333.1 207 L 333.1 207 Q 333.1 210 334.4 211.1 L 334.4 211.1 L 334.4 211.1 Q 335.7 212.2 338.1 212.2 L 338.1 212.2 L 338.1 212.2 Q 340.6 212.2 343.2 211.1 L 343.2 211.1 L 343.2 211.1 Q 345.8 210 346.8 208.2 Z M 333.8 201.2 L 333.8 201.2 L 333.8 201.2 Q 338.3 201.2 341 198.4 L 341 198.4 L 341 198.4 Q 343.6 195.7 343.6 191.4 L 343.6 191.4 L 343.6 191.4 Q 343.6 189.9 343 189.1 L 343 189.1 L 343 189.1 Q 342.5 188.3 341.4 188.3 L 341.4 188.3 L 341.4 188.3 Q 340.3 188.3 339.4 188.8 L 339.4 188.8 L 339.4 188.8 Q 338.5 189.2 337.5 190.6 L 337.5 190.6 L 337.5 190.6 Q 335.1 193.8 333.8 201.2 Z M 375 201 L 375 201 L 375 201 Q 377.3 196.9 377.3 192.8 L 377.3 192.8 L 377.3 192.8 Q 377.3 190 375.3 190 L 375.3 190 L 375.3 190 Q 373.8 190 372.2 192.6 L 372.2 192.6 L 372.2 192.6 Q 370.5 195.3 370 198.6 L 370 198.6 L 366.7 219 L 353.4 220.3 L 360 186.4 L 370.5 185.1 L 369.4 191.5 L 369.4 191.5 Q 372.5 185.1 379.5 185.1 L 379.5 185.1 L 379.5 185.1 Q 383.3 185.1 385.3 187 L 385.3 187 L 385.3 187 Q 387.3 188.9 387.3 192.9 L 387.3 192.9 L 387.3 192.9 Q 387.3 196.8 384.7 199.3 L 384.7 199.3 L 384.7 199.3 Q 382.1 201.8 377.7 201.8 L 377.7 201.8 L 377.7 201.8 Q 375.8 201.8 375 201 Z M 408.7 211.8 L 408.7 211.8 L 408.7 211.8 Q 405.3 215.2 399.3 215.2 L 399.3 215.2 L 399.3 215.2 Q 391.6 215.2 390 209.7 L 390 209.7 L 390 209.7 Q 389.5 208 389.5 206.1 L 389.5 206.1 L 389.5 206.1 Q 389.5 204.3 389.9 202.4 L 389.9 202.4 L 392.9 186.4 L 405.9 185.1 L 402.4 203.7 L 402.4 203.7 Q 402.3 204.5 402.1 205.4 L 402.1 205.4 L 402.1 205.4 Q 401.9 206.3 401.9 207.3 L 401.9 207.3 L 401.9 207.3 Q 401.9 208.2 402.2 208.8 L 402.2 208.8 L 402.2 208.8 Q 402.5 209.4 403 209.8 L 403 209.8 L 403 209.8 Q 403.7 210.3 405.1 210.3 L 405.1 210.3 L 405.1 210.3 Q 406.5 210.3 407.7 208.6 L 407.7 208.6 L 407.7 208.6 Q 408.9 207 409.4 204.1 L 409.4 204.1 L 413 186.4 L 425.6 185.1 L 420.8 210.2 L 420.8 210.2 Q 418.4 222.5 413.5 227.4 L 413.5 227.4 L 413.5 227.4 Q 411 229.9 407.8 230.9 L 407.8 230.9 L 407.8 230.9 Q 404.6 231.9 400.4 231.9 L 400.4 231.9 L 400.4 231.9 Q 393.7 231.9 389.9 229.7 L 389.9 229.7 L 389.9 229.7 Q 386 227.6 386 224.1 L 386 224.1 L 386 224.1 Q 386 221.5 388 220 L 388 220 L 388 220 Q 390 218.5 393.1 218.5 L 393.1 218.5 L 393.1 218.5 Q 395.7 218.5 397.8 219.6 L 397.8 219.6 L 397.8 219.6 Q 399 220.3 399.6 221.2 L 399.6 221.2 L 399.6 221.2 Q 398.1 222.5 398.1 224.6 L 398.1 224.6 L 398.1 224.6 Q 398.1 227.4 400.7 227.4 L 400.7 227.4 L 400.7 227.4 Q 404.9 227.4 407.3 217.7 L 407.3 217.7 L 407.3 217.7 Q 408 214.8 408.7 211.8 Z" fill="#fdfdfe"></path></g></g><style>text {
  font-size: 64px;
  font-family: Arial Black;
  dominant-baseline: central;
  text-anchor: middle;
}</style></svg>