<svg width="657.797509765625px" height="122.021240234375px" xmlns="http://www.w3.org/2000/svg" viewBox="-78.89875488281251 13.9893798828125 657.797509765625 122.021240234375" style="background: rgb(16, 154, 215);" preserveAspectRatio="xMidYMid"><defs><filter id="editing-extrude-glow"><feFlood flood-color="#109ad7" result="flood-1"></feFlood><feMorphology operator="erode" radius="1" in="SourceAlpha" result="erode"></feMorphology><feComposite operator="in" in="flood-1" in2="erode" result="comp1"></feComposite><feConvolveMatrix order="3,3" divisor="1" in="comp1" result="convolve" kernelMatrix="0 0 0 1 1 1 0 0 0"></feConvolveMatrix><feOffset dx="-3" dy="0" in="convolve" result="extrude"></feOffset><feComposite operator="in" in="flood-1" in2="extrude" result="comp-extrude"></feComposite><feFlood flood-color="#fdfdfe" result="flood-2"></feFlood><feComposite operator="in" in="flood-2" in2="SourceAlpha" result="comp2"></feComposite><feMorphology operator="dilate" radius="1" in="comp2" result="dilate"></feMorphology><feOffset dx="-4.5" dy="0" in="dilate" result="offset"></feOffset><feGaussianBlur in="offset" stdDeviation="5.8" result="blur"></feGaussianBlur><feComponentTransfer in="blur" result="shadow"><feFuncA type="linear" slope="0.8" intercept="-0.2"></feFuncA></feComponentTransfer><feMerge><feMergeNode in="shadow"></feMergeNode><feMergeNode in="comp-extrude"></feMergeNode><feMergeNode in="SourceGraphic"></feMergeNode></feMerge></filter></defs><g filter="url(#editing-extrude-glow)"><g transform="translate(15.890004247426987, 104.46218872070312)"><path d="M14.34 0L0.38 0L8.51-42.24L22.59-42.24L14.34 0ZM70.08 1.28L70.08 1.28L70.08 1.28Q62.34 1.28 62.34-4.74L62.34-4.74L62.34-4.74Q62.34-7.36 63.46-12.45L63.46-12.45L63.46-12.45Q64.58-17.54 64.96-19.58L64.96-19.58L64.96-19.58Q65.86-24.26 65.86-25.73L65.86-25.73L65.86-25.73Q65.86-28.99 63.42-28.99L63.42-28.99L63.42-28.99Q61.82-28.99 60.29-26.78L60.29-26.78L60.29-26.78Q58.75-24.58 58.05-20.16L58.05-20.16L54.08 0L41.60 1.28L45.06-16.13L45.06-16.13Q45.63-19.01 46.14-22.27L46.14-22.27L46.14-22.27Q46.66-25.54 46.66-26.05L46.66-26.05L46.66-26.05Q46.66-28.99 44.48-28.99L44.48-28.99L44.48-28.99Q43.01-28.99 41.41-26.82L41.41-26.82L41.41-26.82Q39.81-24.64 38.91-20.16L38.91-20.16L35.01 0L22.40 1.28L29.12-32.64L39.55-33.92L38.46-27.46L38.46-27.46Q40.13-30.91 43.20-32.42L43.20-32.42L43.20-32.42Q46.27-33.92 51.07-33.92L51.07-33.92L51.07-33.92Q53.82-33.92 55.62-32.58L55.62-32.58L55.62-32.58Q57.41-31.23 57.98-29.06L57.98-29.06L57.98-29.06Q59.07-31.30 61.86-32.61L61.86-32.61L61.86-32.61Q64.64-33.92 68.06-33.92L68.06-33.92L68.06-33.92Q71.49-33.92 73.18-33.18L73.18-33.18L73.18-33.18Q74.88-32.45 75.90-31.23L75.90-31.23L75.90-31.23Q77.63-28.99 77.63-24.90L77.63-24.90L77.63-24.90Q77.63-20.86 75.90-12.48L75.90-12.48L75.90-12.48Q75.01-8.38 75.01-6.88L75.01-6.88L75.01-6.88Q75.01-5.38 75.87-4.48L75.87-4.48L75.87-4.48Q76.74-3.58 78.02-3.46L78.02-3.46L78.02-3.46Q77.38-1.28 75.17 0L75.17 0L75.17 0Q72.96 1.28 70.08 1.28ZM85.73-1.92L85.73-1.92L85.73-1.92Q84.22-3.58 83.55-6.21L83.55-6.21L83.55-6.21Q82.88-8.83 82.88-13.12L82.88-13.12L82.88-13.12Q82.88-17.41 84.35-21.31L84.35-21.31L84.35-21.31Q85.82-25.22 88.51-28.03L88.51-28.03L88.51-28.03Q94.02-33.92 103.10-33.92L103.10-33.92L103.10-33.92Q106.37-33.92 108.74-32.83L108.74-32.83L119.68-33.92L114.94-8.96L114.94-8.96Q114.75-8.19 114.75-6.78L114.75-6.78L114.75-6.78Q114.75-5.38 115.62-4.48L115.62-4.48L115.62-4.48Q116.48-3.58 117.76-3.46L117.76-3.46L117.76-3.46Q117.12-1.28 114.78 0L114.78 0L114.78 0Q112.45 1.28 109.82 1.28L109.82 1.28L109.82 1.28Q107.20 1.28 105.44 0.29L105.44 0.29L105.44 0.29Q103.68-0.70 103.17-2.37L103.17-2.37L103.17-2.37Q102.14-0.77 99.97 0.26L99.97 0.26L99.97 0.26Q97.79 1.28 94.88 1.28L94.88 1.28L94.88 1.28Q91.97 1.28 89.60 0.51L89.60 0.51L89.60 0.51Q87.23-0.26 85.73-1.92ZM99.23-27.90L99.23-27.90L99.23-27.90Q98.50-26.75 97.86-24.80L97.86-24.80L97.86-24.80Q97.22-22.85 96.16-17.63L96.16-17.63L96.16-17.63Q95.10-12.42 95.10-8.70L95.10-8.70L95.10-8.70Q95.10-4.99 95.68-3.90L95.68-3.90L95.68-3.90Q96.26-2.82 97.28-2.82L97.28-2.82L97.28-2.82Q99.33-2.82 100.83-4.77L100.83-4.77L100.83-4.77Q102.34-6.72 102.91-10.18L102.91-10.18L106.30-28.93L106.30-28.93Q104.96-30.08 103.39-30.08L103.39-30.08L103.39-30.08Q101.82-30.08 100.90-29.57L100.90-29.57L100.90-29.57Q99.97-29.06 99.23-27.90ZM127.42-26.75L127.42-26.75L127.42-26.75Q129.60-29.82 132.90-31.87L132.90-31.87L132.90-31.87Q136.19-33.92 140.22-33.92L140.22-33.92L140.22-33.92Q144.26-33.92 146.18-32.64L146.18-32.64L158.72-33.92L154.37-9.34L154.37-9.34Q152.13 3.20 147.39 8.13L147.39 8.13L147.39 8.13Q142.85 12.80 134.02 12.80L134.02 12.80L134.02 12.80Q127.30 12.80 123.46 10.69L123.46 10.69L123.46 10.69Q119.62 8.58 119.62 5.06L119.62 5.06L119.62 5.06Q119.62 2.43 121.60 0.93L121.60 0.93L121.60 0.93Q123.58-0.58 126.66-0.58L126.66-0.58L126.66-0.58Q129.34-0.58 131.39 0.64L131.39 0.64L131.39 0.64Q132.61 1.28 133.18 2.18L133.18 2.18L133.18 2.18Q131.71 3.46 131.71 5.57L131.71 5.57L131.71 5.57Q131.71 8.32 134.27 8.32L134.27 8.32L134.27 8.32Q138.56 8.32 140.99-1.79L140.99-1.79L140.99-1.79Q141.70-4.54 142.27-7.30L142.27-7.30L142.27-7.30Q139.39-3.78 132.86-3.78L132.86-3.78L132.86-3.78Q128.32-3.78 125.70-5.95L125.70-5.95L125.70-5.95Q123.07-8.13 123.07-13.25L123.07-13.25L123.07-13.25Q123.07-16.45 124.16-20.06L124.16-20.06L124.16-20.06Q125.25-23.68 127.42-26.75ZM135.74-13.06L135.74-13.06L135.74-13.06Q135.74-8.70 137.98-8.70L137.98-8.70L137.98-8.70Q139.52-8.70 140.99-10.37L140.99-10.37L140.99-10.37Q142.14-11.71 142.59-13.70L142.59-13.70L145.86-30.14L145.86-30.14Q145.54-30.21 145.22-30.34L145.22-30.34L145.22-30.34Q144.58-30.59 143.74-30.59L143.74-30.59L143.74-30.59Q139.84-30.59 137.54-24.19L137.54-24.19L137.54-24.19Q135.74-19.20 135.74-13.06ZM187.14-10.82L187.14-10.82L187.14-10.82Q188.74-9.73 188.74-7.33L188.74-7.33L188.74-7.33Q188.74-4.93 187.52-3.39L187.52-3.39L187.52-3.39Q186.30-1.86 184.32-0.83L184.32-0.83L184.32-0.83Q180.22 1.28 175.81 1.28L175.81 1.28L175.81 1.28Q171.39 1.28 168.80 0.32L168.80 0.32L168.80 0.32Q166.21-0.64 164.48-2.43L164.48-2.43L164.48-2.43Q161.09-5.82 161.09-12.03L161.09-12.03L161.09-12.03Q161.09-21.70 166.34-27.58L166.34-27.58L166.34-27.58Q171.97-33.92 181.76-33.92L181.76-33.92L181.76-33.92Q187.84-33.92 190.85-31.36L190.85-31.36L190.85-31.36Q193.09-29.44 193.09-26.30L193.09-26.30L193.09-26.30Q193.09-15.04 173.63-15.04L173.63-15.04L173.63-15.04Q173.38-13.38 173.38-11.97L173.38-11.97L173.38-11.97Q173.38-9.02 174.69-7.90L174.69-7.90L174.69-7.90Q176-6.78 178.43-6.78L178.43-6.78L178.43-6.78Q180.86-6.78 183.46-7.90L183.46-7.90L183.46-7.90Q186.05-9.02 187.14-10.82ZM174.08-17.79L174.08-17.79L174.08-17.79Q178.62-17.79 181.25-20.61L181.25-20.61L181.25-20.61Q183.87-23.30 183.87-27.58L183.87-27.58L183.87-27.58Q183.87-29.06 183.33-29.86L183.33-29.86L183.33-29.86Q182.78-30.66 181.70-30.66L181.70-30.66L181.70-30.66Q180.61-30.66 179.68-30.24L179.68-30.24L179.68-30.24Q178.75-29.82 177.79-28.42L177.79-28.42L177.79-28.42Q175.42-25.22 174.08-17.79ZM214.40-22.46L214.40-22.46L214.40-22.46Q215.30-24.83 215.30-26.88L215.30-26.88L215.30-26.88Q215.30-30.66 212.22-30.66L212.22-30.66L212.22-30.66Q210.62-30.66 209.31-29.22L209.31-29.22L209.31-29.22Q208-27.78 208-25.98L208-25.98L208-25.98Q208-24.70 209.02-23.68L209.02-23.68L209.02-23.68Q210.50-22.27 214.27-19.97L214.27-19.97L214.27-19.97Q218.05-17.66 219.49-15.78L219.49-15.78L219.49-15.78Q220.93-13.89 220.93-11.30L220.93-11.30L220.93-11.30Q220.93-8.70 219.68-6.34L219.68-6.34L219.68-6.34Q218.43-3.97 216.19-2.30L216.19-2.30L216.19-2.30Q211.39 1.28 203.71 1.28L203.71 1.28L203.71 1.28Q199.55 1.28 196.35-0.90L196.35-0.90L196.35-0.90Q193.15-3.01 193.15-5.50L193.15-5.50L193.15-5.50Q193.15-8 194.98-9.47L194.98-9.47L194.98-9.47Q196.80-10.94 199.49-10.94L199.49-10.94L199.49-10.94Q202.18-10.94 203.84-9.92L203.84-9.92L203.84-9.92Q203.01-7.81 203.01-6.40L203.01-6.40L203.01-6.40Q203.01-2.18 206.59-2.18L206.59-2.18L206.59-2.18Q208.13-2.18 209.15-3.14L209.15-3.14L209.15-3.14Q210.18-4.10 210.18-5.76L210.18-5.76L210.18-5.76Q210.18-9.02 204.67-12.48L204.67-12.48L204.67-12.48Q200.19-15.42 199.17-16.58L199.17-16.58L199.17-16.58Q197.44-18.62 197.44-21.18L197.44-21.18L197.44-21.18Q197.44-23.74 198.66-26.18L198.66-26.18L198.66-26.18Q199.87-28.61 202.11-30.34L202.11-30.34L202.11-30.34Q206.78-33.92 214.91-33.92L214.91-33.92L214.91-33.92Q219.07-33.92 221.54-32.26L221.54-32.26L221.54-32.26Q224-30.59 224-27.78L224-27.78L224-27.78Q224-24.96 222.30-23.36L222.30-23.36L222.30-23.36Q220.61-21.76 217.54-21.76L217.54-21.76L217.54-21.76Q215.42-21.76 214.40-22.46ZM265.47-20.61L278.40-21.76L278.40-21.76Q273.79-11.65 273.79 0.06L273.79 0.06L273.79 0.06Q272.06 1.28 269.54 1.28L269.54 1.28L269.54 1.28Q267.01 1.28 265.41 0.10L265.41 0.10L265.41 0.10Q263.81-1.09 263.49-2.30L263.49-2.30L263.49-2.30Q261.89-0.64 259.30 0.32L259.30 0.32L259.30 0.32Q256.70 1.28 253.95 1.28L253.95 1.28L253.95 1.28Q251.20 1.28 248.80 0.38L248.80 0.38L248.80 0.38Q246.40-0.51 244.54-2.50L244.54-2.50L244.54-2.50Q240.45-6.85 240.45-15.10L240.45-15.10L240.45-15.10Q240.45-27.90 247.30-35.58L247.30-35.58L247.30-35.58Q254.34-43.52 266.82-43.52L266.82-43.52L266.82-43.52Q275.46-43.52 278.53-39.04L278.53-39.04L278.53-39.04Q279.49-37.63 279.49-35.94L279.49-35.94L279.49-35.94Q279.49-34.24 278.75-32.80L278.75-32.80L278.75-32.80Q278.02-31.36 276.86-30.21L276.86-30.21L276.86-30.21Q274.11-27.65 270.72-27.65L270.72-27.65L270.72-27.65Q269.38-27.65 268.10-28.10L268.10-28.10L268.10-28.10Q268.35-30.02 268.35-32.26L268.35-32.26L268.35-32.26Q268.35-34.50 268.19-35.52L268.19-35.52L268.19-35.52Q268.03-36.54 267.65-37.38L267.65-37.38L267.65-37.38Q266.82-39.10 264.99-39.10L264.99-39.10L264.99-39.10Q263.17-39.10 261.15-37.15L261.15-37.15L261.15-37.15Q259.14-35.20 257.54-32L257.54-32L257.54-32Q254.02-24.83 254.02-16.19L254.02-16.19L254.02-16.19Q254.02-12.22 255.55-9.41L255.55-9.41L255.55-9.41Q257.22-6.34 260.16-6.34L260.16-6.34L260.16-6.34Q261.18-6.34 262.11-6.85L262.11-6.85L262.11-6.85Q263.04-7.36 263.42-7.74L263.42-7.74L265.47-20.61ZM284.32-1.92L284.32-1.92L284.32-1.92Q282.82-3.58 282.14-6.21L282.14-6.21L282.14-6.21Q281.47-8.83 281.47-13.12L281.47-13.12L281.47-13.12Q281.47-17.41 282.94-21.31L282.94-21.31L282.94-21.31Q284.42-25.22 287.10-28.03L287.10-28.03L287.10-28.03Q292.61-33.92 301.70-33.92L301.70-33.92L301.70-33.92Q304.96-33.92 307.33-32.83L307.33-32.83L318.27-33.92L313.54-8.96L313.54-8.96Q313.34-8.19 313.34-6.78L313.34-6.78L313.34-6.78Q313.34-5.38 314.21-4.48L314.21-4.48L314.21-4.48Q315.07-3.58 316.35-3.46L316.35-3.46L316.35-3.46Q315.71-1.28 313.38 0L313.38 0L313.38 0Q311.04 1.28 308.42 1.28L308.42 1.28L308.42 1.28Q305.79 1.28 304.03 0.29L304.03 0.29L304.03 0.29Q302.27-0.70 301.76-2.37L301.76-2.37L301.76-2.37Q300.74-0.77 298.56 0.26L298.56 0.26L298.56 0.26Q296.38 1.28 293.47 1.28L293.47 1.28L293.47 1.28Q290.56 1.28 288.19 0.51L288.19 0.51L288.19 0.51Q285.82-0.26 284.32-1.92ZM297.82-27.90L297.82-27.90L297.82-27.90Q297.09-26.75 296.45-24.80L296.45-24.80L296.45-24.80Q295.81-22.85 294.75-17.63L294.75-17.63L294.75-17.63Q293.70-12.42 293.70-8.70L293.70-8.70L293.70-8.70Q293.70-4.99 294.27-3.90L294.27-3.90L294.27-3.90Q294.85-2.82 295.87-2.82L295.87-2.82L295.87-2.82Q297.92-2.82 299.42-4.77L299.42-4.77L299.42-4.77Q300.93-6.72 301.50-10.18L301.50-10.18L304.90-28.93L304.90-28.93Q303.55-30.08 301.98-30.08L301.98-30.08L301.98-30.08Q300.42-30.08 299.49-29.57L299.49-29.57L299.49-29.57Q298.56-29.06 297.82-27.90ZM337.02-3.52L337.02-3.52L337.02-3.52Q335.04 1.28 328.70 1.28L328.70 1.28L328.70 1.28Q325.50 1.28 323.46-0.96L323.46-0.96L323.46-0.96Q321.79-2.82 321.79-4.93L321.79-4.93L321.79-4.93Q321.79-9.73 324.03-20.22L324.03-20.22L328.70-44.80L341.70-46.08L335.49-13.70L335.49-13.70Q334.40-8.96 334.40-7.30L334.40-7.30L334.40-7.30Q334.40-3.65 337.02-3.52ZM357.76-3.52L357.76-3.52L357.76-3.52Q355.78 1.28 349.44 1.28L349.44 1.28L349.44 1.28Q346.24 1.28 344.19-0.96L344.19-0.96L344.19-0.96Q342.53-2.82 342.53-4.93L342.53-4.93L342.53-4.93Q342.53-9.73 344.77-20.22L344.77-20.22L349.44-44.80L362.43-46.08L356.22-13.70L356.22-13.70Q355.14-8.96 355.14-7.30L355.14-7.30L355.14-7.30Q355.14-3.65 357.76-3.52ZM389.12-10.82L389.12-10.82L389.12-10.82Q390.72-9.73 390.72-7.33L390.72-7.33L390.72-7.33Q390.72-4.93 389.50-3.39L389.50-3.39L389.50-3.39Q388.29-1.86 386.30-0.83L386.30-0.83L386.30-0.83Q382.21 1.28 377.79 1.28L377.79 1.28L377.79 1.28Q373.38 1.28 370.78 0.32L370.78 0.32L370.78 0.32Q368.19-0.64 366.46-2.43L366.46-2.43L366.46-2.43Q363.07-5.82 363.07-12.03L363.07-12.03L363.07-12.03Q363.07-21.70 368.32-27.58L368.32-27.58L368.32-27.58Q373.95-33.92 383.74-33.92L383.74-33.92L383.74-33.92Q389.82-33.92 392.83-31.36L392.83-31.36L392.83-31.36Q395.07-29.44 395.07-26.30L395.07-26.30L395.07-26.30Q395.07-15.04 375.62-15.04L375.62-15.04L375.62-15.04Q375.36-13.38 375.36-11.97L375.36-11.97L375.36-11.97Q375.36-9.02 376.67-7.90L376.67-7.90L376.67-7.90Q377.98-6.78 380.42-6.78L380.42-6.78L380.42-6.78Q382.85-6.78 385.44-7.90L385.44-7.90L385.44-7.90Q388.03-9.02 389.12-10.82ZM376.06-17.79L376.06-17.79L376.06-17.79Q380.61-17.79 383.23-20.61L383.23-20.61L383.23-20.61Q385.86-23.30 385.86-27.58L385.86-27.58L385.86-27.58Q385.86-29.06 385.31-29.86L385.31-29.86L385.31-29.86Q384.77-30.66 383.68-30.66L383.68-30.66L383.68-30.66Q382.59-30.66 381.66-30.24L381.66-30.24L381.66-30.24Q380.74-29.82 379.78-28.42L379.78-28.42L379.78-28.42Q377.41-25.22 376.06-17.79ZM417.28-17.98L417.28-17.98L417.28-17.98Q419.58-22.08 419.58-26.24L419.58-26.24L419.58-26.24Q419.58-28.99 417.60-28.99L417.60-28.99L417.60-28.99Q416.06-28.99 414.46-26.37L414.46-26.37L414.46-26.37Q412.80-23.74 412.29-20.35L412.29-20.35L408.96 0L395.71 1.28L402.24-32.64L412.80-33.92L411.65-27.46L411.65-27.46Q414.78-33.92 421.82-33.92L421.82-33.92L421.82-33.92Q425.54-33.92 427.55-32L427.55-32L427.55-32Q429.57-30.08 429.57-26.14L429.57-26.14L429.57-26.14Q429.57-22.21 426.98-19.71L426.98-19.71L426.98-19.71Q424.38-17.22 419.97-17.22L419.97-17.22L419.97-17.22Q418.05-17.22 417.28-17.98ZM450.94-7.23L450.94-7.23L450.94-7.23Q447.62-3.78 441.54-3.78L441.54-3.78L441.54-3.78Q433.92-3.78 432.32-9.34L432.32-9.34L432.32-9.34Q431.81-11.01 431.81-12.86L431.81-12.86L431.81-12.86Q431.81-14.72 432.19-16.64L432.19-16.64L435.20-32.64L448.19-33.92L444.67-15.30L444.67-15.30Q444.54-14.46 444.35-13.57L444.35-13.57L444.35-13.57Q444.16-12.67 444.16-11.74L444.16-11.74L444.16-11.74Q444.16-10.82 444.48-10.21L444.48-10.21L444.48-10.21Q444.80-9.60 445.25-9.22L445.25-9.22L445.25-9.22Q446.02-8.70 447.39-8.70L447.39-8.70L447.39-8.70Q448.77-8.70 449.95-10.37L449.95-10.37L449.95-10.37Q451.14-12.03 451.71-14.91L451.71-14.91L455.23-32.64L467.84-33.92L463.04-8.77L463.04-8.77Q460.67 3.52 455.81 8.38L455.81 8.38L455.81 8.38Q453.31 10.88 450.08 11.87L450.08 11.87L450.08 11.87Q446.85 12.86 442.69 12.86L442.69 12.86L442.69 12.86Q435.97 12.86 432.13 10.75L432.13 10.75L432.13 10.75Q428.29 8.64 428.29 5.12L428.29 5.12L428.29 5.12Q428.29 2.50 430.27 0.99L430.27 0.99L430.27 0.99Q432.26-0.51 435.33-0.51L435.33-0.51L435.33-0.51Q438.02-0.51 440.06 0.64L440.06 0.64L440.06 0.64Q441.28 1.34 441.86 2.24L441.86 2.24L441.86 2.24Q440.38 3.52 440.38 5.63L440.38 5.63L440.38 5.63Q440.38 8.45 442.94 8.45L442.94 8.45L442.94 8.45Q447.17 8.45 449.60-1.28L449.60-1.28L449.60-1.28Q450.30-4.16 450.94-7.23Z" fill="#fdfdfe"></path></g></g><style>text {
  font-size: 64px;
  font-family: Arial Black;
  dominant-baseline: central;
  text-anchor: middle;
}</style></svg>